<svg xmlns="http://www.w3.org/2000/svg" viewBox="0 0 128 128" width="128" height="128" fill="none">
  <rect width="128" height="128" rx="28" fill="#65A637"/>
  <path d="M26 20l28.16 0 24.64 44-24.64 44-28.16 0 24.64-44z" fill="#FFFFFF"/>
  <rect x="82" y="96" width="26" height="10" rx="3" fill="#FFFFFF"/>
  <g transform="translate(86,18)" fill="none" stroke="#FFFFFF" stroke-width="2" stroke-linecap="round" stroke-linejoin="round">
    <path d="M11.017 2.814a1 1 0 0 1 1.966 0l1.051 5.558a2 2 0 0 0 1.594 1.594l5.558 1.051a1 1 0 0 1 0 1.966l-5.558 1.051a2 2 0 0 0-1.594 1.594l-1.051 5.558a1 1 0 0 1-1.966 0l-1.051-5.558a2 2 0 0 0-1.594-1.594l-5.558-1.051a1 1 0 0 1 0-1.966l5.558-1.051a2 2 0 0 0 1.594-1.594z"/>
    <path d="M20 2v4"/>
    <path d="M22 4h-4"/>
    <circle cx="4" cy="20" r="2"/>
  </g>
</svg>
